<svg width="212" height="220" viewBox="0 0 212 220" fill="none" xmlns="http://www.w3.org/2000/svg">
<path d="M211.34 78.6164C207.569 73.4625 203.53 68.5106 199.238 63.7814C199.096 63.6394 198.903 63.5597 198.701 63.5597C198.5 63.5597 198.307 63.6394 198.164 63.7814C193.359 67.699 188.766 71.869 184.403 76.2739C181.671 75.493 177.87 76.4337 175.57 77.3951C173.116 78.416 170.948 80.0211 169.256 82.0709C167.563 84.1207 166.397 86.553 165.86 89.1562C165.335 91.6471 165.515 94.0356 163.762 95.8906C163.517 95.3535 163.332 94.7636 163.079 94.2311C162.962 94.0369 162.773 93.8969 162.554 93.8419C162.334 93.7869 162.101 93.8214 161.907 93.9379C150.417 101.059 138.533 108.577 128.529 117.703C121.935 102.362 99.1216 70.9344 80.9504 73.2965C80.0737 68.1484 78.4634 63.1526 76.1687 58.4615C75.8778 57.875 74.8497 58.2672 75.0946 58.9008C78.9747 68.9449 79.0506 73.3977 79.4347 73.7853C77.9708 78.5187 76.8967 83.3498 75.5799 88.1327C74.5127 87.7762 69.5896 79.7515 61.2325 76.8109C61.2325 75.7069 57.6675 61.7747 50.4478 47.6791C50.3665 47.5267 50.2334 47.4082 50.0726 47.345C49.9118 47.2818 49.7338 47.2779 49.5704 47.3341C45.9387 48.8901 44.7864 45.5194 45.2268 43.2838C45.9065 39.8338 49.3024 39.8407 50.1063 39.4773C51.3867 38.7715 52.4799 37.77 53.2948 36.5562C54.1098 35.3424 54.6229 33.9514 54.7914 32.4991C54.8374 30.3026 53.9622 28.1556 53.9622 25.9108C53.9622 23.3244 54.7454 20.9416 57.4755 20.1044C59.5271 19.4754 62.9575 19.6766 63.8683 22.202C64.6538 24.387 65.4151 19.6525 67.6254 17.3226C69.8357 14.9927 74.3391 14.6005 76.0675 17.7136C77.9374 21.0808 76.3412 26.0016 79.7763 28.6386C87.9654 47.3548 76.1618 62.4037 61.3763 56.8918C60.5943 56.6008 60.2516 57.7244 60.8392 58.1568C67.0619 62.7752 76.3113 58.8905 80.3099 53.1796C85.1928 46.2037 84.7949 36.8806 81.139 29.4631C82.4046 29.9642 83.804 30.0145 85.1023 29.6058C86.4006 29.197 87.5188 28.354 88.269 27.2183C88.6554 26.679 88.0252 26.1937 87.5376 26.242C82.4132 27.0723 82.9503 18.9717 81.7796 15.7022C80.1441 10.9141 77.1836 6.68824 73.242 3.51566C68.527 -0.0654395 63.3324 0.331311 57.8216 1.90566C55.2824 2.63131 51.185 3.95496 50.2581 6.88286C48.0192 6.3693 45.6743 6.59193 43.572 7.51766C40.6349 9.01266 40.0576 12.0027 39.6194 14.9835C38.8144 20.4276 38.4993 29.4482 37.0331 32.1116C36.0326 33.9309 32.8747 34.2138 32.2031 31.9655C32.1526 31.8014 32.0453 31.6606 31.9005 31.5683C31.7557 31.476 31.5828 31.4382 31.4127 31.4617C31.2426 31.4852 31.0864 31.5685 30.9721 31.6966C30.8577 31.8247 30.7927 31.9893 30.7886 32.161C30.6181 33.3624 30.7779 34.5875 31.2508 35.705C31.7236 36.8225 32.4917 37.7902 33.4727 38.5044C34.4869 39.0746 35.663 39.2882 36.8129 39.1112C37.9629 38.9343 39.0203 38.3768 39.8161 37.5281C40.2163 37.098 40.9787 37.6684 40.6452 38.1629C40.0112 38.9637 39.2022 39.6089 38.2802 40.0488C37.3583 40.4887 36.3479 40.7118 35.3265 40.7009C35.3656 40.8159 37.1308 45.7529 37.1814 45.8759C38.4039 48.8015 40.1565 52.8576 43.5731 53.7316C46.0617 54.3687 48.893 53.4395 51.1378 52.2193C54.7488 59.7829 56.6026 67.9318 59.1878 75.9346C56.874 75.7299 49.9269 78.6049 46.8414 82.2274C30.7897 86.7699 18.7883 97.9433 10.5359 112.141C-0.958313 131.921 -1.03191 143.798 2.87464 159.281C4.98029 167.623 7.80354 176.555 12.4392 183.973C12.6629 185.115 13.1379 186.194 13.8298 187.131C14.5218 188.068 15.4133 188.839 16.44 189.389C20.2454 191.246 24.444 188.656 25.517 184.904C26.2158 185.585 26.9844 186.19 27.8101 186.71C24.7856 196.47 22.297 206.368 19.4657 216.086C19.4265 216.229 19.4207 216.379 19.4489 216.525C19.4771 216.671 19.5384 216.808 19.6282 216.926C19.718 217.044 19.8337 217.139 19.9665 217.205C20.0993 217.271 20.2455 217.306 20.3937 217.306C44.2999 219.08 68.2433 219.649 92.2239 219.014C98.5661 218.853 104.912 219.16 111.255 219.062C110.156 204.771 110.316 193.302 104.766 169.142C108.305 163.804 109.206 153.759 109.206 147.378C112.741 154.449 117.93 155.876 125.407 154.063C135.955 151.507 149.802 144.633 162.689 132.885C165.855 130 167.695 128.106 168.155 123.809C168.407 121.361 168.504 118.9 168.447 116.44C172.643 113.658 177.719 110.389 180.793 106.388C181.179 107.929 194.038 108.099 200.458 100.293C202.662 97.3618 204.18 93.9733 204.9 90.3775C205.185 89.2045 206.12 86.571 204.997 85.5475C207.095 83.5925 209.242 81.6375 211.293 79.6422C211.386 79.4891 211.44 79.3147 211.448 79.1354C211.456 78.956 211.419 78.7775 211.34 78.6164ZM80.3179 74.4649C85.2951 74.3189 89.5892 76.0266 93.9811 78.2231C94.0788 86.4698 89.1511 92.5211 83.7334 98.2791C82.0565 94.875 79.6977 91.8519 76.8035 89.3977C78.0731 84.4699 79.5371 79.495 80.3179 74.4649ZM59.6754 77.3399C70.2462 82.6299 72.8797 88.2419 73.8273 89.2999C70.9009 93.2038 69.2942 97.9384 69.24 102.817C63.9695 102.232 59.0372 99.1612 55.4791 95.3995C52.2062 91.9392 50.2581 87.6405 47.8178 83.6396C51.3862 80.0735 55.4871 77.141 59.6754 77.348V77.3399ZM166.395 120.429C166.286 122.722 166.28 125.301 165.13 127.31C163.912 129.055 162.45 130.616 160.787 131.945C151.844 140.178 141.341 146.534 129.898 150.635C125.653 152.15 119.956 154.221 115.6 151.953C111.903 150.028 110.425 145.56 108.915 141.998C108.31 134.173 107.103 126.406 105.303 118.768C105.163 118.132 104.231 118.423 104.328 119.061C105.708 128.183 107.318 137.409 107.256 146.68C107.215 152.634 107.012 164.492 101.692 169.273C99.692 169.469 97.6415 169.713 95.6417 170.006C94.9582 171.539 93.7929 172.807 92.3228 173.617C92.2565 173.652 92.1834 173.672 92.1085 173.676C92.0337 173.679 91.9589 173.667 91.8894 173.639C91.8198 173.611 91.7571 173.568 91.7057 173.514C91.6543 173.46 91.6152 173.395 91.5914 173.324C95.8855 170.787 94.6584 161.757 94.4215 157.562C94.4102 157.414 94.3435 157.276 94.2349 157.175C94.1263 157.075 93.9837 157.019 93.8356 157.019C93.6875 157.019 93.5449 157.075 93.4363 157.175C93.3277 157.276 93.261 157.414 93.2497 157.562C92.8575 165.086 93.4797 168.473 91.3959 170.641C89.4351 170.971 87.5079 171.477 85.6378 172.153C83.4908 164.833 81.5254 157.424 79.245 150.145C79.1798 149.923 79.0452 149.727 78.8608 149.587C78.6765 149.446 78.4521 149.368 78.2203 149.364C71.7052 149.193 65.188 149.617 58.7497 150.629C57.4318 150.871 57.9688 152.919 59.2867 152.679C65.274 151.744 71.3334 151.352 77.3912 151.508C93.9857 208.642 94.0903 208.24 96.0315 216.751C71.1444 218.41 46.2572 217.19 21.4195 215.486C26.0057 198.696 31.1612 182.281 36.5995 165.76C36.8893 164.88 35.5703 164.587 35.2333 165.37C32.5512 171.738 30.1896 178.237 28.1574 184.841C22.0095 180.156 20.5674 173.641 18.9355 166.053C18.8948 165.925 18.8101 165.815 18.6963 165.742C18.5826 165.67 18.447 165.64 18.3133 165.657C18.1795 165.674 18.0562 165.738 17.9648 165.837C17.8733 165.936 17.8197 166.065 17.8131 166.199C18.2835 172.106 20.0085 178.789 23.961 183.473C16.409 194.801 10.6279 183.874 14.8358 169.273C17.0058 161.745 21.5989 156.163 26.6451 151.12C28.2068 149.559 30.3539 147.168 32.7942 147.509C33.0863 148.584 33.3876 149.655 33.6233 150.729C33.6832 150.923 33.8102 151.089 33.9816 151.197C34.1529 151.305 34.3571 151.348 34.5575 151.318C34.7578 151.289 34.9411 151.189 35.0741 151.036C35.2071 150.883 35.2811 150.688 35.2828 150.486C35.0091 145.27 31.6856 139.791 30.9392 137.554C34.2581 131.99 39.4308 127.452 43.9687 122.914C44.6518 122.231 43.58 121.16 42.8946 121.84C38.466 126.245 33.5256 130.624 30.3596 136.09C28.7979 132.186 27.3041 128.194 26.0161 124.183C25.967 124.025 25.8583 123.893 25.713 123.814C25.5677 123.735 25.3975 123.716 25.2385 123.761C25.0795 123.806 24.9444 123.912 24.8619 124.055C24.7795 124.198 24.7562 124.368 24.7971 124.528C26.1265 128.999 31.6775 143.848 32.4089 146.243C30.7989 146 29.3879 146.834 27.9239 147.999C16.6332 156.961 11.4341 169.014 11.7227 180.012C8.30688 172.581 5.62648 164.834 3.71989 156.881C-3.52511 125.017 19.9786 91.8023 46.6632 84.1226C51.2988 93.7366 58.2782 103.693 69.9392 104.57C70.7856 104.633 70.7568 103.903 70.9155 101.837C71.5595 102.481 77.4878 107.486 78.333 106.912C79.7755 105.927 81.0129 104.672 81.9762 103.215C81.6745 100.664 80.8437 98.2043 79.5371 95.9929C79.2404 95.4087 79.9729 94.8245 80.4157 95.3098C81.7227 96.7898 82.6889 98.5387 83.2458 100.433C85.2284 100.433 90.7726 92.5314 92.0778 90.2337C93.9891 86.8711 95.8843 82.8174 95.3473 78.9131C104.832 82.5609 121.693 108.314 126.53 118.342C128.72 122.883 129.175 127.903 129.405 132.884C129.417 133.147 129.53 133.396 129.721 133.578C129.912 133.759 130.166 133.861 130.429 133.861C130.693 133.861 130.946 133.759 131.137 133.578C131.328 133.396 131.441 133.147 131.454 132.884C131.548 128.116 130.65 123.38 128.818 118.977C139.743 111.12 150.241 103.019 161.757 95.9435C165.21 103.629 166.799 112.021 166.398 120.437L166.395 120.429ZM184.402 101.544C180.189 97.7966 176.714 93.2949 174.154 88.2707C175.487 86.4867 177.227 85.0477 179.229 84.0743C179.671 83.8351 179.375 83.098 178.884 83.2935C176.415 84.0573 174.248 85.576 172.687 87.6359C172.494 87.7652 172.353 87.959 172.29 88.1825C172.227 88.406 172.245 88.6448 172.342 88.856C175.083 94.4804 178.973 99.4675 183.76 103.496C183.941 103.659 184.176 103.75 184.419 103.75C184.663 103.75 184.898 103.659 185.078 103.496C191.399 97.9134 197.661 92.2692 203.866 86.5629C204.263 87.951 201.72 97.7179 196.253 101.69C192.343 104.528 185.903 105.448 181.073 105.448C180.466 103.929 177.067 108.457 168.142 114.476C167.736 108.566 166.406 102.756 164.201 97.2579C167.618 95.0131 166.7 90.4304 168.155 86.9079C169.08 84.6268 170.567 82.6165 172.477 81.0638C174.387 79.5111 176.658 78.4663 179.08 78.0265C179.568 77.9287 187.083 77.1973 184.886 80.1252C184.447 80.7106 185.268 81.3799 185.813 81.0521C187.592 79.9826 187.131 77.8321 185.521 76.8063C190.108 73.3425 194.255 69.1945 198.551 65.388C199.38 66.3149 200.161 67.2418 200.941 68.2181C200.715 68.6316 200.617 69.1033 200.661 69.5727C200.704 70.0421 200.887 70.4879 201.185 70.8528L203.772 73.9762C204.054 74.3347 204.438 74.6005 204.872 74.7397C205.307 74.8788 205.774 74.8848 206.212 74.757C207.237 76.1232 208.261 77.4894 209.236 78.9051C201.143 86.6193 192.797 94.1299 184.404 101.552L184.402 101.544Z" fill="#2F3941"/>
</svg>
